<?xml version="1.0"?>
<svg xmlns:rdf="http://www.w3.org/1999/02/22-rdf-syntax-ns#" xmlns="http://www.w3.org/2000/svg" xmlns:cc="http://web.resource.org/cc/" xmlns:xlink="http://www.w3.org/1999/xlink" xmlns:dc="http://purl.org/dc/elements/1.1/" xmlns:svg="http://www.w3.org/2000/svg" id="svg1" height="80pt" width="80pt">
  <defs id="defs3">
    <linearGradient id="linearGradient3073">
      <stop id="stop3074" stop-color="#fff" offset="0"/>
      <stop id="stop3075" stop-color="#fad787" stop-opacity=".015686" offset="1"/>
    </linearGradient>
    <linearGradient id="linearGradient2445">
      <stop id="stop2446" offset="0"/>
      <stop id="stop2447" stop-color="#fad787" stop-opacity="0" offset="1"/>
    </linearGradient>
    <linearGradient id="linearGradient2449" y2=".56566" xlink:href="#linearGradient2445" y1="1.3485" x2=".38372" x1=".83721"/>
    <linearGradient id="linearGradient3072" y2=".39899" xlink:href="#linearGradient3073" y1="-.40909" x2=".42045" x1="1.0189e-15"/>
    <linearGradient id="linearGradient4943" y2=".21717" xlink:href="#linearGradient3073" y1=".010101" x2=".355" x1="-.05"/>
    <linearGradient id="linearGradient5566" y2=".4697" xlink:href="#linearGradient2445" y1=".86869" x2=".815" x1=".98"/>
  </defs>
  <path id="path8059" fill-rule="evenodd" fill-opacity=".25098" d="m9.9408 18.252c16.886 1.055 67.204-6.601 75.647-10.558l-4.108 62.375c-16.095 4.486-60.855 21.191-74.839 14.595 0.0663 0-3.4134-0.92-4.2388-3.14-0.5615-3.16 0.0013-13.376 1.8692-15.375 1.468-3.084 6.9306-3.624 6.7656-4.877-1.1212-17.283-1.0962-43.02-1.0962-43.02z"/>
  <path id="path1195" fill-rule="evenodd" fill="#fad787" d="m9.7625 18.47c16.886 1.055 68.602-6.861 77.044-10.818l2.904 64.644c-16.095 4.485-61.742 21.899-75.726 15.303 0.066 0-2.853-0.239-4.5028-2.253-1.3863-2.542-1.2399-16.621-1.376-18.443-0.2721-3.644 4.6588-2.589 4.4938-3.842-1.121-17.283-2.8365-44.591-2.8365-44.591z"/>
  <path id="path4944" fill-rule="evenodd" fill="url(#linearGradient5566)" d="m10.151 18.511c16.887 1.056 68.602-6.86 77.045-10.818l2.902 64.644c-16.094 4.486-61.741 21.9-75.725 15.304 0.066 0-2.853-0.239-4.5031-2.253-1.3863-2.542-1.2399-16.621-1.376-18.443-0.2721-3.645 4.6591-2.589 4.4941-3.843-1.122-17.282-2.837-44.591-2.837-44.591z"/>
  <path id="path4321" fill-rule="evenodd" fill="url(#linearGradient4943)" d="m9.7966 17.625c16.886 1.055 69.31-5.796 77.754-9.7542l2.902 64.644c-16.095 4.485-61.741 21.899-75.725 15.303 0.065 0-2.853-0.239-4.504-2.253-1.3858-2.542-2.3032-16.443-2.4393-18.266-0.2721-3.644 4.8363-3.298 4.6713-4.551-1.122-17.282-2.6594-45.123-2.6594-45.123z"/>
  <path id="path7433" fill-rule="evenodd" d="m87.259 6.176l-0.875 0.4062c-1.961 0.9194-6.779 2.1899-13.063 3.4688-6.283 1.279-14.056 2.612-22.093 3.781-16.076 2.339-33.256 4.019-41.563 3.5l-0.7186-0.031 0.0625 0.719s1.6911 27.178 2.8121 44.468c-0.045 0.024-0.089 0.054-0.218 0.094-0.365 0.113-0.989 0.218-1.6254 0.406-0.6362 0.189-1.3039 0.477-1.8437 1.032s-0.8596 1.389-0.7813 2.437c0.029 0.388 0.0354 1.633 0.0625 3.25s0.0791 3.647 0.1563 5.688c0.0771 2.04 0.1889 4.081 0.375 5.812 0.186 1.731 0.3788 3.085 0.8437 3.938l0.0313 0.062 0.0312 0.031c0.9319 1.138 2.1914 1.76 3.1874 2.094 0.498 0.168 0.937 0.255 1.25 0.313 0.116 0.021 0.203 0.019 0.281 0.031 0.027 0.004 0.072 0.028 0.094 0.031 0 0 0.031-0.006 0.063 0 3.709 1.69 9.187 1.803 15.656 1.031 6.548-0.781 14.085-2.482 21.687-4.531 15.204-4.098 30.663-9.585 38.657-11.812l0.5-0.125-0.032-0.5-2.906-64.656-0.031-0.938zm-1.188 1.8125l2.844 63.374c-8.189 2.316-23.231 7.603-38.156 11.626-7.57 2.041-15.084 3.731-21.531 4.5-6.447 0.77-11.844 0.58-15.125-0.968l-0.188 0.406c0.039-0.204 0.094-0.438 0.094-0.438s-0.053 0.002-0.063 0c-0.009-0.001-0.027 0.001-0.031 0-0.016-0.002-0.022 0.002-0.031 0-0.007 0-0.022 0.002-0.031 0l-0.094 0.438c-0.011-0.205-0.031-0.438-0.031-0.438h0.093c-0.006 0 0.007-0.03 0-0.031-0.068-0.009-0.178-0.006-0.312-0.031-0.268-0.05-0.633-0.137-1.063-0.281-0.841-0.283-1.846-0.812-2.5621-1.657-0.2267-0.443-0.5413-1.754-0.7188-3.406-0.1806-1.68-0.2984-3.725-0.375-5.75-0.0765-2.025-0.0979-4.041-0.125-5.656-0.027-1.615-0.0547-2.789-0.0937-3.313-0.0578-0.773 0.1344-1.188 0.4375-1.5 0.303-0.311 0.8019-0.527 1.3441-0.687 0.541-0.16 1.12-0.25 1.625-0.406 0.252-0.078 0.485-0.15 0.718-0.344 0.227-0.188 0.407-0.563 0.375-0.906 0-0.012 0.001-0.019 0-0.032-1.104-17.028-2.763-43.123-2.812-43.906 8.752 0.429 25.361-1.237 41.125-3.531 8.057-1.172 15.872-2.496 22.187-3.781 5.799-1.181 10.051-2.2865 12.5-3.2815zm-72.218 79.374v0.344c-0.034 0.002-0.063 0-0.063 0s0.036-0.204 0.063-0.344z"/>
  <path id="path7436" fill-rule="evenodd" fill-opacity=".25098" d="m80.362 14.414c1.583 4.749-13.456 8.971-21.636 11.081-8.179 2.111-7.21 4.689-7.21 6.008s1.669 25.127 2.725 27.238c1.055 2.111 6.773 1.929 7.301 4.304s2.366 16.979 2.894 18.826 4.583 4.616 8.277 3.561 9.496-69.171 7.649-71.018z"/>
  <path id="path1196" fill-rule="evenodd" fill="#fad787" d="m87.071 7.3879c1.583 4.7491-13.456 8.9711-21.636 11.082-8.179 2.11-7.388 1.319-7.388 2.638s1.847 28.496 2.903 30.607c1.055 2.111 6.596 2.639 7.124 5.013 0.528 2.375 3.43 27.441 3.958 29.288 0.527 1.847 14.512-11.874 18.205-12.929 3.694-1.055-1.319-63.852-3.166-65.699z"/>
  <path id="path2450" fill-rule="evenodd" fill="url(#linearGradient3072)" d="m87.211 7.5663c1.583 4.7497-13.456 8.9707-21.636 11.082-8.179 2.111-7.388 1.319-7.388 2.639 0 1.319 1.847 28.496 2.903 30.607 1.055 2.11 6.596 2.638 7.124 5.013 0.527 2.374 3.43 27.44 3.957 29.287 0.528 1.847 14.512-11.873 18.206-12.928 3.694-1.056-1.319-63.853-3.166-65.7z"/>
  <path id="path1823" fill-rule="evenodd" fill="url(#linearGradient2449)" d="m86.77 6.7663c1.583 4.7497-13.457 8.9707-21.636 11.082-8.179 2.111-7.388 1.319-7.388 2.639 0 1.319 1.847 28.496 2.903 30.607 1.055 2.11 7.305 2.638 7.833 5.013 0.527 2.374 3.43 27.618 3.958 29.465 0.527 1.847 13.802-12.051 17.496-13.106 3.694-1.056-1.319-63.853-3.166-65.7z"/>
  <path id="path3076" fill-rule="evenodd" fill="#fff" d="m12.933 65.488c-1.241 0.177-2.729-0.053-3.257 1.53 0.1069 2.091 0.0849 12.211 0.969 16.744 0.96 1.06 2.448 1.311 3.335 1.488l-1.047-19.762z"/>
  <path id="path3698" fill-rule="evenodd" fill="#00d898" d="m12.926 65.458c-1.241 0.177-2.839 0.018-3.229 1.546-0.0857 1.528 0.0401 2.36 0.0592 3.061 0.3428 0.056 3.3248-0.099 3.4248-0.199l-0.255-4.408z"/>
  <path id="path4320" fill-rule="evenodd" fill="#cf225a" d="m9.747 70.028l3.423-0.182 0.043 1.012-3.4384 0.121-0.0276-0.951z"/>
  <path id="path7432" fill-rule="evenodd" d="m87.332 6.3867l-1.031 0.625c0.146 0.4397 0.094 0.8551-0.125 1.3125-0.22 0.4575-0.637 0.9575-1.25 1.4688-1.227 1.023-3.175 2.056-5.438 3-4.524 1.888-10.324 3.447-14.406 4.5-4.076 1.052-5.841 1.37-6.75 1.625-0.227 0.064-0.415 0.117-0.594 0.219-0.179 0.101-0.387 0.313-0.468 0.531-0.163 0.437-0.032 0.608-0.032 0.875 0 0.238 0.01 0.78 0.063 1.656 0.052 0.876 0.155 2.053 0.25 3.438 0.19 2.769 0.453 6.353 0.75 9.968 0.297 3.616 0.614 7.249 0.937 10.125 0.162 1.439 0.315 2.692 0.469 3.657 0.154 0.964 0.264 1.591 0.5 2.062 0.357 0.714 0.994 1.183 1.719 1.594s1.558 0.75 2.344 1.094c0.785 0.343 1.519 0.692 2.062 1.062 0.543 0.371 0.855 0.722 0.938 1.094 0.107 0.485 0.395 2.571 0.75 5.281 0.354 2.71 0.789 6.103 1.218 9.5 0.429 3.398 0.864 6.787 1.219 9.438 0.178 1.325 0.337 2.47 0.469 3.343 0.132 0.874 0.216 1.444 0.312 1.782 0.049 0.17 0.173 0.354 0.344 0.468 0.171 0.115 0.349 0.156 0.5 0.157 0.303 0.001 0.552-0.1 0.813-0.219 0.521-0.237 1.138-0.655 1.875-1.188 1.472-1.064 3.362-2.614 5.375-4.281 2.012-1.666 4.146-3.419 5.968-4.812 1.823-1.394 3.414-2.431 4.094-2.625 0.317-0.091 0.54-0.308 0.688-0.532 0.147-0.223 0.249-0.487 0.343-0.781 0.188-0.587 0.329-1.348 0.438-2.281 0.218-1.866 0.302-4.424 0.312-7.469 0.021-6.089-0.3-14.085-0.812-22.125s-1.202-16.105-1.875-22.281c-0.337-3.088-0.659-5.71-0.969-7.625-0.155-0.9574-0.325-1.7539-0.469-2.3438-0.072-0.2949-0.142-0.5416-0.218-0.75-0.039-0.1041-0.11-0.1889-0.157-0.2812-0.004-0.0078 0.004-0.0234 0-0.0313-0.045-0.0844-0.064-0.1576-0.156-0.25zm-0.437 2.9375c0.059 0.3208 0.125 0.5222 0.187 0.9058 0.304 1.878 0.633 4.488 0.969 7.563 0.67 6.151 1.364 14.197 1.875 22.219 0.51 8.022 0.833 16.023 0.812 22.062-0.01 3.02-0.105 5.567-0.312 7.344-0.104 0.889-0.231 1.581-0.375 2.031-0.072 0.225-0.137 0.393-0.188 0.469-1.167 0.334-2.676 1.426-4.531 2.844s-3.958 3.179-5.969 4.843c-2.011 1.665-3.93 3.229-5.343 4.25-0.692 0.5-1.264 0.863-1.625 1.032-0.055-0.269-0.122-0.573-0.219-1.219-0.13-0.861-0.292-1.991-0.469-3.313-0.354-2.643-0.79-6.04-1.219-9.437-0.428-3.397-0.864-6.785-1.218-9.5-0.355-2.715-0.626-4.672-0.782-5.375-0.181-0.815-0.76-1.413-1.437-1.875-0.678-0.462-1.484-0.838-2.281-1.188-0.798-0.349-1.592-0.675-2.219-1.031-0.628-0.356-1.048-0.721-1.219-1.062-0.028-0.057-0.226-0.757-0.375-1.688s-0.309-2.166-0.469-3.594c-0.32-2.854-0.641-6.485-0.937-10.093-0.297-3.608-0.561-7.205-0.75-9.969-0.095-1.382-0.198-2.567-0.25-3.438-0.053-0.87-0.063-1.47-0.063-1.562 0-0.309-0.009-0.346-0.031-0.344 0.051-0.02 0.075-0.031 0.188-0.062 0.74-0.207 2.646-0.566 6.75-1.625 4.097-1.058 9.918-2.625 14.562-4.563 2.322-0.969 4.346-2.017 5.75-3.187 0.527-0.439 0.859-0.9447 1.188-1.4378z"/>
  <metadata>
    <rdf:RDF>
      <cc:Work>
        <dc:format>image/svg+xml</dc:format>
        <dc:type rdf:resource="http://purl.org/dc/dcmitype/StillImage"/>
        <cc:license rdf:resource="http://creativecommons.org/licenses/publicdomain/"/>
        <dc:publisher>
          <cc:Agent rdf:about="http://openclipart.org/">
            <dc:title>Openclipart</dc:title>
          </cc:Agent>
        </dc:publisher>
        <dc:title>Folder (vertical)</dc:title>
        <dc:date>2009-03-10T15:28:53</dc:date>
        <dc:description>folder sitting vertically</dc:description>
        <dc:source>http://openclipart.org/detail/22091/folder-(vertical)-by-nicubunu</dc:source>
        <dc:creator>
          <cc:Agent>
            <dc:title>nicubunu</dc:title>
          </cc:Agent>
        </dc:creator>
        <dc:subject>
          <rdf:Bag>
            <rdf:li>clip art</rdf:li>
            <rdf:li>clipart</rdf:li>
            <rdf:li>folder</rdf:li>
            <rdf:li>icon</rdf:li>
            <rdf:li>image</rdf:li>
            <rdf:li>media</rdf:li>
            <rdf:li>office</rdf:li>
            <rdf:li>png</rdf:li>
            <rdf:li>public domain</rdf:li>
            <rdf:li>svg</rdf:li>
            <rdf:li>symbol</rdf:li>
          </rdf:Bag>
        </dc:subject>
      </cc:Work>
      <cc:License rdf:about="http://creativecommons.org/licenses/publicdomain/">
        <cc:permits rdf:resource="http://creativecommons.org/ns#Reproduction"/>
        <cc:permits rdf:resource="http://creativecommons.org/ns#Distribution"/>
        <cc:permits rdf:resource="http://creativecommons.org/ns#DerivativeWorks"/>
      </cc:License>
    </rdf:RDF>
  </metadata>
</svg>
