<?xml version="1.0" encoding="utf-8"?>
<!-- Generator: Adobe Illustrator 24.0.3, SVG Export Plug-In . SVG Version: 6.00 Build 0)  -->
<svg version="1.1" id="Layer_1" xmlns="http://www.w3.org/2000/svg" xmlns:xlink="http://www.w3.org/1999/xlink" x="0px" y="0px"
	 viewBox="0 0 185.2 79.2" style="enable-background:new 0 0 185.2 79.2;" xml:space="preserve">
<style type="text/css">
	.st0{fill:#FFFFFF;}
</style>
<g>
	<path class="st0" d="M58.3,59.5h-8.8v18.3H33V59.5H0V47.3L27.9,1.4h21.6V46h8.8V59.5z M33,46V33.6c0-4.9,0.5-12.3,0.7-17.1h-0.5
		c-1.9,4.2-4.1,8.5-6.3,12.9L16.9,46H33z"/>
	<path class="st0" d="M65.6,39.3C65.6,13.3,76.6,0,92.9,0c16.3,0,27.3,13.3,27.3,39.3s-10.9,39.9-27.3,39.9
		C76.6,79.2,65.6,65.2,65.6,39.3z M103.5,39.3c0-20.9-4.6-25.6-10.6-25.6c-5.9,0-10.6,4.7-10.6,25.6c0,20.8,4.7,26.2,10.6,26.2
		C98.9,65.5,103.5,60.1,103.5,39.3z"/>
	<path class="st0" d="M185.2,59.5h-8.8v18.3H160V59.5h-33V47.3l27.9-45.9h21.6V46h8.8V59.5z M160,46V33.6c0-4.9,0.5-12.3,0.7-17.1
		h-0.5c-1.9,4.2-4.1,8.5-6.3,12.9L143.9,46H160z"/>
</g>
</svg>
